# xmcd
#
# Track frame offsets:
#	150
#	14512
#	32173
#	47885
#	64621
#	84508
#	101595
#	118708
#	136044
#	152420
#	167791
#	189028
#	206141
#	220877
#	238090
#	257252
#
# Disc length: 3652 seconds
#
# Revision: 2829625255
# Processed by: cddbd v1.5.2PL0 Copyright (c) Steve Scherf et al.
# Submitted via: EZCDAudioConverter 3.0.8.2
#
DISCID=d10e4210
DTITLE=Wolfgang Petry - Hit Collection
DYEAR=2007
DGENRE=
TTITLE0=Bronze, silber und gold
TTITLE1=Könnt' ich noch einmal mit dir leben
TTITLE2=Du bist ein Wunder
TTITLE3=Du gehört zu mir
TTITLE4=Wenn du mich brauchst
TTITLE5=Frei für dich
TTITLE6=Jede menge Liebe
TTITLE7=Sieben Tage, sieben Nächte
TTITLE8=Sehnsucht nach dir
TTITLE9=Ich steh' auf Dich
TTITLE10=Ich wünsche dir viel Glück auf deiner Reise
TTITLE11=Einmal noch
TTITLE12=Ich denke jeden Tag an dich
TTITLE13=Verlieben, verloren, vergessen, verzeih'n
TTITLE14=So schwer war's noch nie
TTITLE15=Wer die Augen schließt
EXTD=
EXTT0=
EXTT1=
EXTT2=
EXTT3=
EXTT4=
EXTT5=
EXTT6=
EXTT7=
EXTT8=
EXTT9=
EXTT10=
EXTT11=
EXTT12=
EXTT13=
EXTT14=
EXTT15=
PLAYORDER=
